<svg height="512pt" viewBox="-7 0 512 512" width="512pt" xmlns="http://www.w3.org/2000/svg"><path d="m83.988281 81.078125h28.433594v30.0625h-28.433594zm0 0" fill="#36d9f6"/><path d="m259 14.074219-206.527344 171.433593v311.492188h407.054688v-311.492188zm0 0" fill="#f2f2fc"/><path d="m429.003906 158.902344h-30l-74.746094-65.140625v-93.761719h104.746094zm0 0" fill="#ac2739"/><path d="m87.023438 497v-207.34375h149.992187v207.261719zm0 0" fill="#fd9127"/><path d="m204.132812 405.082031c7.84375 0 15.363282-6.898437 15-15-.363281-8.128906-6.59375-15-15-15-7.847656 0-15.363281 6.898438-15 15 .363282 8.125 6.589844 15 15 15zm0 0" fill="#fabe2c"/><g fill="#199be1"><path d="m28.433594 58.277344h30.0625v28.386718h-30.0625zm0 0"/><path d="m28.433594 0h30.0625v28.210938h-30.0625zm0 0"/><path d="m58.496094 28.210938h28.394531v30.066406h-28.394531zm0 0"/><path d="m0 28.210938h28.433594v30.066406h-28.433594zm0 0"/></g><path d="m459.527344 185.507812-200.527344-171.433593-3 2.492187v480.433594h203.527344zm0 0" fill="#d8d8fb"/><path d="m15 482h482v30h-482zm0 0" fill="#48578a"/><path d="m256 482h241v30h-241zm0 0" fill="#2d3c72"/><path d="m474.941406 230.613281-218.941406-190.816406-218.941406 190.816406-19.710938-22.613281 238.652344-208 238.652344 208zm0 0" fill="#fc657d"/><path d="m494.652344 208-238.652344-208v39.796875l218.941406 190.816406zm0 0" fill="#e33a53"/><path d="m301.089844 300.53125h104.058594v104.0625h-104.058594zm0 0" fill="#f2f2fc"/><path d="m286.980469 289.65625v132.605469h131.996093v-132.605469zm101.996093 53.09375h-20.996093v-23.09375h20.996093zm-50.996093-23.09375v23.09375h-21v-23.09375zm-21 53.09375h21v19.511719h-21zm51 19.511719v-19.507813h20.996093v19.507813zm0 0" fill="#2d3c72"/><path d="m256 227.359375c-29.871094 0-54.175781-24.304687-54.175781-54.175781 0-29.875 24.304687-54.179688 54.175781-54.179688s54.175781 24.304688 54.175781 54.179688c0 29.871094-24.304687 54.175781-54.175781 54.175781zm0 0" fill="#d8d8fb"/><path d="m256 119.003906v108.355469c29.871094 0 54.175781-24.304687 54.175781-54.175781 0-29.875-24.304687-54.179688-54.175781-54.179688zm0 0" fill="#b6b6dc"/><path d="m256 227.359375c-29.871094 0-54.175781-24.304687-54.175781-54.179687 0-29.871094 24.304687-54.175782 54.175781-54.175782s54.175781 24.304688 54.175781 54.175782c0 29.875-24.304687 54.179687-54.175781 54.179687zm0-78.355469c-13.332031 0-24.175781 10.847656-24.175781 24.179688 0 13.328125 10.84375 24.175781 24.175781 24.175781s24.175781-10.847656 24.175781-24.175781c0-13.332032-10.84375-24.179688-24.175781-24.179688zm0 0" fill="#48578a"/><path d="m256 119.003906v30c13.332031 0 24.175781 10.847656 24.175781 24.179688 0 13.328125-10.84375 24.175781-24.175781 24.175781v30c29.871094 0 54.175781-24.304687 54.175781-54.175781 0-29.875-24.304687-54.179688-54.175781-54.179688zm0 0" fill="#2d3c72"/></svg>