<svg xmlns="http://www.w3.org/2000/svg" width="42.016" height="42.016" viewBox="0 0 42.016 42.016">
  <defs>
    <style>
      .cls-1 {
        fill: none;
      }

      .cls-2 {
        fill: #b2bec3;
      }
    </style>
  </defs>
  <g id="image-line" transform="translate(0 0)">
    <path id="Path_185" data-name="Path 185" class="cls-1" d="M0,0H42.016V42.016H0Z"/>
    <path id="Path_186" data-name="Path 186" class="cls-2" d="M6.951,34.512l-.035.035-.037-.035H3.737A1.738,1.738,0,0,1,2,32.773V4.738A1.751,1.751,0,0,1,3.737,3h31.54a1.738,1.738,0,0,1,1.737,1.738V32.773a1.751,1.751,0,0,1-1.737,1.738Zm26.561-10.5V6.5H5.5V31.01L23.008,13.5Zm0,4.951-10.5-10.5L10.452,31.01h23.06ZM12.5,17.005a3.5,3.5,0,1,1,3.5-3.5A3.5,3.5,0,0,1,12.5,17.005Z" transform="translate(1.501 2.252)"/>
  </g>
</svg>
