<svg id="Layer_1" data-name="Layer 1" xmlns="http://www.w3.org/2000/svg" viewBox="0 0 331.34 115.88"><defs><style>.cls-1{fill:#010101;}.cls-2{fill:#0b3c5f;}.cls-3{fill:#1b75bc;}.cls-4{font-size:60px;fill:#fff;font-family:Montserrat-Bold, Montserrat;font-weight:700;}</style></defs><title>Logo Pos 3D chốt</title><path class="cls-1" d="M142.47,237.46q6.66,5.31,6.66,14.94a24.15,24.15,0,0,1-14.71,23A39.07,39.07,0,0,1,118,278.68h-12.6l-3.24,16.47H84.33l12.6-63h26.64Q135.81,232.15,142.47,237.46Zm-14.53,24.39q3.19-2.79,3.19-7.92a6.8,6.8,0,0,0-2.56-5.8q-2.56-1.94-7.34-1.94h-9.36l-3.69,18.45H118.8Q124.74,264.64,127.94,261.85Z" transform="translate(-84.33 -192.06)"/><path class="cls-1" d="M168.08,292.9a25.85,25.85,0,0,1-10.89-9.81,27.19,27.19,0,0,1-3.83-14.4,38.13,38.13,0,0,1,5-19.44,35.13,35.13,0,0,1,13.95-13.5,42,42,0,0,1,20.38-4.86,36.93,36.93,0,0,1,16.61,3.51,25.85,25.85,0,0,1,10.89,9.81,27.19,27.19,0,0,1,3.82,14.4,38.13,38.13,0,0,1-5,19.44,35.13,35.13,0,0,1-14,13.5,42.06,42.06,0,0,1-20.39,4.86A36.88,36.88,0,0,1,168.08,292.9Zm28.57-14.22a19.63,19.63,0,0,0,6.93-8,24.89,24.89,0,0,0,2.43-11q0-6.39-3.91-10.21t-10.94-3.83a18.52,18.52,0,0,0-10.44,3,19.65,19.65,0,0,0-6.93,8,24.84,24.84,0,0,0-2.43,11,13.64,13.64,0,0,0,3.92,10.22q3.91,3.82,10.93,3.82A18.52,18.52,0,0,0,196.65,278.68Z" transform="translate(-84.33 -192.06)"/><path class="cls-1" d="M235.44,294.52A38.29,38.29,0,0,1,224,289.66l7-13.32A39,39,0,0,0,241.2,281a38.4,38.4,0,0,0,10.8,1.57,17.46,17.46,0,0,0,8-1.48q2.83-1.49,2.83-4.1,0-2.25-2.56-3.51a46.73,46.73,0,0,0-8-2.7,83.56,83.56,0,0,1-10.17-3.28,18.16,18.16,0,0,1-7-5.09,13.37,13.37,0,0,1-2.93-9,19.6,19.6,0,0,1,3.69-11.83,23.64,23.64,0,0,1,10.53-7.88,42.23,42.23,0,0,1,16-2.79,54.22,54.22,0,0,1,12.6,1.4,34.19,34.19,0,0,1,10.08,4l-6.48,13.23A29.65,29.65,0,0,0,270.5,246a34.6,34.6,0,0,0-9.14-1.22,16.94,16.94,0,0,0-8.32,1.71q-3,1.71-3,4.41,0,2.34,2.61,3.6a48,48,0,0,0,8.1,2.7,78.21,78.21,0,0,1,10.13,3.15,17.82,17.82,0,0,1,6.88,4.95,12.87,12.87,0,0,1,2.88,8.73,19.33,19.33,0,0,1-3.73,11.75,23.91,23.91,0,0,1-10.62,7.87,42.35,42.35,0,0,1-16,2.79A56.9,56.9,0,0,1,235.44,294.52Z" transform="translate(-84.33 -192.06)"/><path class="cls-2" d="M415.67,302.9V233.67a5,5,0,0,0-2.5-4.33l-48.76-28.15a5,5,0,0,0-5,0l-48.75,28.15a5,5,0,0,0-2.5,4.33v69.18a5,5,0,0,0,5,5c18,0,79.58.15,97.56,0A5,5,0,0,0,415.67,302.9Z" transform="translate(-84.33 -192.06)"/><path class="cls-3" d="M308.16,294.37V225.21a5,5,0,0,1,2.5-4.33l48.75-28.15a5,5,0,0,1,5,0l48.76,28.15a5,5,0,0,1,2.5,4.33v69.16a5,5,0,0,1-5,5H313.15A5,5,0,0,1,308.16,294.37Z" transform="translate(-84.33 -192.06)"/><text class="cls-4" transform="translate(236.72 87.09)">3D</text></svg>