<svg xmlns="http://www.w3.org/2000/svg" width="150" height="52.449" viewBox="0 0 150 52.449">
    <defs>
        <style>
            .cls-1,.cls-4{fill:#fff}.cls-2{fill:#0b3c5f}.cls-3{fill:#1b75bc}.cls-4{font-size:25px;font-family:Montserrat-Bold,Montserrat;font-weight:700}
        </style>
    </defs>
    <g id="Logo_Pos_3D_chốt" data-name="Logo Pos 3D chốt">
        <path id="Path_117" d="M110.65 234.554a8.157 8.157 0 0 1 3.015 6.763 10.933 10.933 0 0 1-6.659 10.412 17.688 17.688 0 0 1-7.433 1.485h-5.7l-1.473 7.457h-8.07l5.7-28.521h12.06q5.545 0 8.56 2.404zm-6.577 11.046a4.509 4.509 0 0 0 1.444-3.585 3.078 3.078 0 0 0-1.159-2.626 5.419 5.419 0 0 0-3.323-.878H96.8l-1.67 8.352h4.808a6.107 6.107 0 0 0 4.135-1.263z" class="cls-1" data-name="Path 117" transform="translate(-84.33 -214.001)"/>
        <path id="Path_118" d="M160.022 258.957a11.7 11.7 0 0 1-4.93-4.441 12.309 12.309 0 0 1-1.734-6.516 17.262 17.262 0 0 1 2.264-8.8 15.9 15.9 0 0 1 6.315-6.112 19.014 19.014 0 0 1 9.226-2.2 16.718 16.718 0 0 1 7.519 1.589 11.7 11.7 0 0 1 4.93 4.441 12.309 12.309 0 0 1 1.729 6.519 17.262 17.262 0 0 1-2.264 8.8 15.9 15.9 0 0 1-6.338 6.112 19.041 19.041 0 0 1-9.231 2.2 16.7 16.7 0 0 1-7.486-1.592zm12.934-6.437a8.887 8.887 0 0 0 3.137-3.622 11.268 11.268 0 0 0 1.1-4.98 6.167 6.167 0 0 0-1.77-4.622 6.8 6.8 0 0 0-4.953-1.734 8.384 8.384 0 0 0-4.726 1.358 8.9 8.9 0 0 0-3.137 3.622 11.245 11.245 0 0 0-1.1 4.98 6.175 6.175 0 0 0 1.775 4.627 6.781 6.781 0 0 0 4.948 1.729 8.384 8.384 0 0 0 4.725-1.359z" class="cls-1" data-name="Path 118" transform="translate(-122.107 -213.306)"/>
        <path id="Path_119" d="M229.179 259.7a17.335 17.335 0 0 1-5.179-2.2l3.169-6.03a17.655 17.655 0 0 0 4.618 2.11 17.384 17.384 0 0 0 4.889.711 7.9 7.9 0 0 0 3.622-.67 2.055 2.055 0 0 0 1.281-1.856 1.752 1.752 0 0 0-1.159-1.589 21.156 21.156 0 0 0-3.622-1.222 37.828 37.828 0 0 1-4.6-1.485 8.221 8.221 0 0 1-3.169-2.3 6.053 6.053 0 0 1-1.326-4.074 8.873 8.873 0 0 1 1.671-5.356 10.7 10.7 0 0 1 4.767-3.567 19.118 19.118 0 0 1 7.243-1.263 24.547 24.547 0 0 1 5.7.634 15.477 15.477 0 0 1 4.563 1.811l-2.934 5.989a13.422 13.422 0 0 0-3.662-1.6 15.663 15.663 0 0 0-4.138-.552 7.669 7.669 0 0 0-3.767.774 2.28 2.28 0 0 0-1.358 2 1.777 1.777 0 0 0 1.182 1.63 21.725 21.725 0 0 0 3.667 1.222 35.417 35.417 0 0 1 4.586 1.426 8.068 8.068 0 0 1 3.115 2.241 5.827 5.827 0 0 1 1.3 3.952 8.751 8.751 0 0 1-1.689 5.319 10.824 10.824 0 0 1-4.808 3.563 19.172 19.172 0 0 1-7.243 1.263 25.759 25.759 0 0 1-6.719-.881z" class="cls-1" data-name="Path 119" transform="translate(-160.77 -213.317)"/>
        <path id="Path_120" d="M356.831 246.868v-31.341a2.264 2.264 0 0 0-1.132-1.96l-22.074-12.744a2.264 2.264 0 0 0-2.264 0l-22.07 12.744a2.264 2.264 0 0 0-1.132 1.96v31.318a2.263 2.263 0 0 0 2.263 2.264c8.149 0 36.026.068 44.166 0a2.263 2.263 0 0 0 2.243-2.241z" class="cls-2" data-name="Path 120" transform="translate(-206.831 -196.69)"/>
        <path id="Path_121" d="M308.16 238.377v-31.31a2.264 2.264 0 0 1 1.132-1.96l22.07-12.744a2.263 2.263 0 0 1 2.264 0l22.074 12.744a2.263 2.263 0 0 1 1.132 1.96v31.309a2.263 2.263 0 0 1-2.264 2.263h-44.149a2.263 2.263 0 0 1-2.259-2.262z" class="cls-3" data-name="Path 121" transform="translate(-206.831 -192.06)"/>
        <text id="_3D" class="cls-4" data-name="3D" transform="translate(109.165 36.284)">
            <tspan x="0" y="0">3D</tspan>
        </text>
    </g>
</svg>
